<?xml version="1.0" standalone="no"?>
<!DOCTYPE svg PUBLIC "-//W3C//DTD SVG 20010904//EN"
 "http://www.w3.org/TR/2001/REC-SVG-20010904/DTD/svg10.dtd">
<svg version="1.0" xmlns="http://www.w3.org/2000/svg"
 width="1200.000000pt" height="1200.000000pt" viewBox="0 0 1200.000000 1200.000000"
 preserveAspectRatio="xMidYMid meet">

<g transform="translate(0.000000,1200.000000) scale(0.100000,-0.100000)"
fill="#000000" stroke="none">
<path d="M3450 8913 c-19 -1 -78 -8 -130 -14 -456 -52 -890 -228 -1273 -516
-130 -98 -402 -369 -496 -496 -299 -401 -471 -844 -521 -1336 -6 -66 -10 -622
-10 -1547 l0 -1444 3708 1 c2039 1 3761 5 3827 10 807 59 1535 483 1987 1159
97 146 225 396 283 554 45 122 107 363 131 511 17 102 18 218 21 1618 l4 1507
-3748 -2 c-2061 0 -3764 -3 -3783 -5z m5345 -540 c689 -97 1286 -534 1597
-1168 37 -77 68 -145 68 -152 0 -10 -44 -13 -190 -13 l-189 0 -37 68 c-180
325 -451 587 -773 748 -875 435 -1934 69 -2360 -816 -70 -145 -112 -271 -144
-425 -19 -95 -22 -140 -22 -340 1 -201 4 -243 23 -335 52 -236 158 -484 289
-670 101 -143 311 -348 453 -443 196 -130 415 -222 640 -269 143 -29 432 -36
592 -13 429 61 823 281 1096 612 l85 103 210 0 209 0 -28 -47 c-163 -281 -426
-551 -707 -725 -117 -73 -323 -170 -452 -212 -859 -282 -1805 12 -2345 729
-270 358 -411 754 -427 1200 -21 574 187 1124 582 1534 481 501 1146 731 1830
634z m-4955 -44 c523 -47 1022 -288 1379 -665 296 -312 480 -672 563 -1099 21
-108 22 -134 25 -1252 l4 -1143 -180 0 -180 0 -3 1123 -3 1122 -23 109 c-110
519 -425 954 -879 1214 -558 320 -1249 316 -1799 -9 -199 -118 -416 -315 -547
-499 -135 -190 -250 -454 -297 -682 -36 -177 -40 -321 -40 -1364 l0 -1014
-180 0 -181 0 4 1118 c3 1230 1 1182 68 1439 184 715 724 1285 1431 1512 262
83 560 116 838 90z m4860 -853 c380 -82 695 -326 868 -671 44 -88 90 -234 107
-338 15 -93 20 -299 9 -356 l-6 -31 -1054 0 c-868 0 -1054 -2 -1054 -13 0 -29
51 -162 91 -237 88 -165 225 -294 404 -380 152 -74 202 -85 390 -85 182 0 259
16 395 83 73 36 211 132 239 165 12 15 39 17 217 17 112 0 204 -4 204 -8 0
-23 -112 -166 -190 -243 -237 -233 -530 -352 -870 -351 -339 0 -632 122 -870
362 -240 241 -360 534 -360 875 0 328 117 617 346 855 186 193 432 323 691
365 110 18 339 13 443 -9z m-4946 -50 c106 -62 120 -220 27 -299 -154 -129
-376 36 -292 218 32 70 88 105 170 105 39 0 66 -7 95 -24z m86 -1681 l0 -1035
-180 0 -180 0 0 1035 0 1035 180 0 180 0 0 -1035z"/>
<path d="M8325 7160 c-267 -42 -508 -205 -648 -438 -48 -80 -103 -219 -109
-277 l-3 -30 884 -3 c487 -1 888 1 892 5 10 11 -24 135 -56 207 -61 139 -180
285 -301 372 -82 59 -212 120 -309 144 -93 24 -263 33 -350 20z"/>
</g>
</svg>
