<svg width="314" height="81" viewBox="0 0 314 81" fill="none" xmlns="http://www.w3.org/2000/svg">
<path d="M75.7522 32.11C75.7522 32.11 84.7222 30.96 87.7222 41.43C87.7222 41.43 89.1222 45.97 86.4422 51.24L79.7522 67.72C79.7522 67.72 75.1822 76.44 66.6322 78.33C66.6322 78.33 60.3922 79.97 56.0222 80.03H1.30222C1.30222 80.03 -1.62778 77.56 1.30222 75.49L38.9222 51.76C38.9222 51.76 44.3922 50.03 41.5722 57.2L39.7022 61.43C39.7022 61.43 40.2222 64.36 43.4122 63.93H62.2322L75.7522 32.12V32.11Z" fill="#114293"/>
<path d="M49.7523 47.99H29.7322C29.7322 47.99 14.6622 47.11 19.2622 32.07C19.2622 32.07 23.4022 19.34 30.0822 10.13C30.0822 10.13 35.0323 2.31 45.8423 0H117.542C117.542 0 122.222 0.120012 119.342 4.95001L101.162 23.24C101.162 23.24 97.0222 24.62 96.7922 20.59C96.7922 20.59 98.1722 16.1 94.2622 15.87H45.8423C45.8423 15.87 44.5022 16.06 43.9022 17.83L39.8423 28.06C39.8423 28.06 38.8922 31.17 41.9122 31.77L53.8622 31.86C53.8622 31.86 55.9322 32.21 55.4122 35.7L50.5822 47.98H49.7523V47.99Z" fill="#C51C1F"/>
<path d="M160.883 17.395L161.035 21.1976H160.747C160.302 19.8543 159.909 18.9403 159.565 18.4555C159.222 17.9606 158.727 17.7131 158.08 17.7131H157.899V27.6818H159.186V28H153.657V27.6818H154.944V17.7131H154.747C154.101 17.7131 153.601 17.9707 153.248 18.4858C152.894 18.9908 152.505 19.8947 152.081 21.1976H151.793L151.945 17.395H160.883ZM161.908 17.395H169.786L169.937 20.3947H169.664C169.24 19.3746 168.796 18.6777 168.331 18.304C167.867 17.9202 167.185 17.7283 166.286 17.7283H165.756V22.4096H166.271C166.746 22.4096 167.144 22.2329 167.468 21.8794C167.791 21.5158 168.018 21.031 168.149 20.425H168.377V24.9094H168.119C167.937 24.1519 167.69 23.6115 167.377 23.2883C167.074 22.9651 166.655 22.8035 166.119 22.8035H165.756V27.6667H166.331C167.261 27.6667 168.048 27.3889 168.695 26.8334C169.351 26.278 169.801 25.5659 170.043 24.6973H170.346L170.225 28H161.908V27.6667H162.801V17.7283H161.908V17.395ZM177.44 27.7121L176.334 24.4397H173.335L172.168 27.7121H173.304V28H170.986V27.7121H171.698L175.562 17.3041H176.804L180.622 27.7121H181.319V28H176.365V27.7121H177.44ZM174.895 20.1371L173.471 24.1065H176.213L174.895 20.1371ZM189.717 17.395H193.762V17.6828H192.929V27.7121H193.762V28H189.141V27.7121H189.974V18.2434H189.914L187.641 28H185.748L183.081 18.198H183.021V27.7121H183.854V28H181.793V27.7121H182.627V17.6828H181.793V17.395H185.884L187.899 25.1973L189.717 17.395ZM201.784 27.8333C202.289 27.8333 202.734 27.697 203.117 27.4243C203.511 27.1516 203.708 26.7425 203.708 26.1972C203.708 25.6416 203.496 25.2174 203.072 24.9245C202.658 24.6316 202.062 24.3791 201.284 24.167C200.517 23.9448 199.956 23.753 199.603 23.5913C199.259 23.4297 198.931 23.2176 198.618 22.9551C197.992 22.4298 197.679 21.6168 197.679 20.5159C197.679 19.617 197.997 18.8444 198.633 18.198C199.279 17.5515 200.158 17.2283 201.269 17.2283C201.804 17.2283 202.36 17.3091 202.936 17.4707C203.521 17.6222 203.885 17.698 204.026 17.698C204.168 17.698 204.294 17.597 204.405 17.395H204.572L204.678 20.4553H204.436C203.951 19.5766 203.441 18.8746 202.905 18.3494C202.38 17.8141 201.804 17.5465 201.178 17.5465C200.562 17.5465 200.082 17.6929 199.739 17.9859C199.396 18.2687 199.224 18.6524 199.224 19.1372C199.224 19.6119 199.426 19.9806 199.83 20.2432C200.244 20.4957 200.749 20.7027 201.345 20.8643C201.941 21.0259 202.33 21.137 202.511 21.1976C202.703 21.2582 202.936 21.3441 203.208 21.4552C203.491 21.5562 203.718 21.6673 203.89 21.7885C204.072 21.8996 204.259 22.046 204.451 22.2278C204.653 22.3995 204.809 22.5914 204.92 22.8035C205.193 23.2883 205.329 23.864 205.329 24.5306C205.329 25.6214 204.986 26.5001 204.299 27.1667C203.622 27.8232 202.729 28.1515 201.618 28.1515C201.042 28.1515 200.38 28.0758 199.633 27.9242C198.896 27.7727 198.487 27.697 198.406 27.697C198.264 27.697 198.128 27.8485 197.997 28.1515H197.785L197.633 24.5458H197.891C198.335 25.4245 198.901 26.1921 199.588 26.8486C200.284 27.5051 201.017 27.8333 201.784 27.8333ZM211.883 27.7121L210.777 24.4397H207.777L206.611 27.7121H207.747V28H205.429V27.7121H206.141L210.004 17.3041H211.247L215.064 27.7121H215.761V28H210.807V27.7121H211.883ZM209.338 20.1371L207.914 24.1065H210.656L209.338 20.1371ZM224.796 17.6828V28H222.675L217.478 18.198V27.7121H218.312V28H216.236V27.7121H217.069V17.6828H216.236V17.395H220.417L224.387 25.0003V17.6828H223.553V17.395H225.629V17.6828H224.796ZM236.824 22.5157C236.824 24.5963 236.238 26.0457 235.066 26.8637C233.986 27.6212 232.501 28 230.612 28H226.325V27.7121H227.325V17.6828H226.325V17.395H231.006C232.945 17.395 234.4 17.7939 235.369 18.5918C236.339 19.3796 236.824 20.6876 236.824 22.5157ZM230.279 27.7121H230.855C231.875 27.7121 232.602 27.3536 233.036 26.6365C233.481 25.9093 233.703 24.6973 233.703 23.0005V22.1218C233.703 19.8493 233.268 18.4807 232.4 18.0161C231.986 17.7939 231.4 17.6828 230.642 17.6828H230.279V27.7121ZM237.761 17.395H245.639L245.791 20.3947H245.518C245.094 19.3746 244.649 18.6777 244.185 18.304C243.72 17.9202 243.038 17.7283 242.14 17.7283H241.609V22.4096H242.124C242.599 22.4096 242.998 22.2329 243.321 21.8794C243.644 21.5158 243.872 21.031 244.003 20.425H244.23V24.9094H243.973C243.791 24.1519 243.543 23.6115 243.23 23.2883C242.927 22.9651 242.508 22.8035 241.973 22.8035H241.609V27.6667H242.185C243.114 27.6667 243.902 27.3889 244.548 26.8334C245.205 26.278 245.654 25.5659 245.897 24.6973H246.2L246.079 28H237.761V27.6667H238.655V17.7283H237.761V17.395ZM251.673 27.8333C252.178 27.8333 252.622 27.697 253.006 27.4243C253.4 27.1516 253.597 26.7425 253.597 26.1972C253.597 25.6416 253.385 25.2174 252.961 24.9245C252.546 24.6316 251.951 24.3791 251.173 24.167C250.405 23.9448 249.845 23.753 249.491 23.5913C249.148 23.4297 248.82 23.2176 248.506 22.9551C247.88 22.4298 247.567 21.6168 247.567 20.5159C247.567 19.617 247.885 18.8444 248.522 18.198C249.168 17.5515 250.047 17.2283 251.158 17.2283C251.693 17.2283 252.248 17.3091 252.824 17.4707C253.41 17.6222 253.774 17.698 253.915 17.698C254.056 17.698 254.183 17.597 254.294 17.395H254.46L254.566 20.4553H254.324C253.839 19.5766 253.329 18.8746 252.794 18.3494C252.269 17.8141 251.693 17.5465 251.067 17.5465C250.451 17.5465 249.971 17.6929 249.628 17.9859C249.284 18.2687 249.112 18.6524 249.112 19.1372C249.112 19.6119 249.314 19.9806 249.718 20.2432C250.133 20.4957 250.638 20.7027 251.233 20.8643C251.829 21.0259 252.218 21.137 252.4 21.1976C252.592 21.2582 252.824 21.3441 253.097 21.4552C253.38 21.5562 253.607 21.6673 253.779 21.7885C253.96 21.8996 254.147 22.046 254.339 22.2278C254.541 22.3995 254.698 22.5914 254.809 22.8035C255.082 23.2883 255.218 23.864 255.218 24.5306C255.218 25.6214 254.874 26.5001 254.188 27.1667C253.511 27.8232 252.617 28.1515 251.506 28.1515C250.93 28.1515 250.269 28.0758 249.521 27.9242C248.784 27.7727 248.375 27.697 248.294 27.697C248.153 27.697 248.017 27.8485 247.885 28.1515H247.673L247.522 24.5458H247.779C248.224 25.4245 248.789 26.1921 249.476 26.8486C250.173 27.5051 250.905 27.8333 251.673 27.8333ZM256.151 17.395H260.878V17.6828H259.999V22.3793H263.014V17.6828H262.12V17.395H266.862V17.6828H265.968V27.7121H266.862V28H262.12V27.7121H263.014V22.7732H259.999V27.7121H260.878V28H256.151V27.7121H257.045V17.6828H256.151V17.395Z" fill="#C51C1F"/>
<path d="M124.765 61.0778H136.348V66.31H119.533V35.006H124.765V61.0778ZM152.58 57.8132C146.185 57.8132 140.953 52.581 140.953 46.186C140.953 39.791 146.185 34.5588 152.58 34.5588C158.975 34.5588 164.207 39.791 164.207 46.186C164.207 52.581 158.975 57.8132 152.58 57.8132ZM152.58 39.7463C149.002 39.7463 146.14 42.6084 146.14 46.186C146.14 49.7636 149.002 52.6257 152.58 52.6257C156.158 52.6257 159.02 49.7636 159.02 46.186C159.02 42.6084 156.158 39.7463 152.58 39.7463ZM162.776 61.1225V66.31H142.115V61.1225H162.776ZM195.05 35.006L182.126 50.9263L195.14 66.31H188.298L178.638 54.4145L175.687 57.7238V66.31H170.454V35.006H175.687V50.7922L188.521 35.006H195.05ZM208.041 66.7572C202.63 66.623 198.337 63.4926 198.247 57.6343H203.479C203.569 60.2281 205.715 61.525 208.041 61.525C210.456 61.525 212.602 59.9598 212.602 57.5002C212.602 54.8617 210.143 53.2518 208.041 53.1623C207.772 53.1623 205.626 53.1623 203.345 52.1338C200.081 50.6133 198.247 47.8406 198.247 44.1289C198.247 38.1811 202.987 34.5588 208.041 34.5588C213.452 34.5588 217.611 38.2258 217.7 43.5475H212.513C212.423 40.9538 210.411 39.791 208.041 39.791C205.581 39.791 203.479 41.2221 203.479 44.1289C203.479 46.7226 205.715 48.109 208.041 48.109C208.264 48.109 210.456 48.109 212.692 49.1375C216.001 50.658 217.79 53.7884 217.79 57.5002C217.79 63.4926 213.094 66.7572 208.041 66.7572ZM244.531 40.2382H228.879V48.0642H241.892V53.2518H228.879V61.0778H244.531V66.31H223.647V35.006H244.531V40.2382ZM291.08 35.006L278.558 67.5622L268.764 41.8034L258.971 67.5622L246.494 35.006H252.128L258.971 53.4754L265.857 35.006H271.671L278.558 53.4754L285.445 35.006H291.08ZM308.217 66.31L306.831 62.6877H295.83L294.488 66.31H288.853L301.33 34.1116L313.852 66.31H308.217ZM301.33 47.304L297.529 58.171H305.131L301.33 47.304Z" fill="#003479"/>
</svg>
